# AST/ASF file generated using VICON BodyLanguage
# -----------------------------------------------
:version 1.10
:name VICON
:units
  mass 1.0
  length 0.45
  angle deg
:documentation
   .ast/.asf automatically generated from VICON data using
   VICON BodyBuilder and BodyLanguage model FoxedUp or BRILLIANT.MOD
:root
   order TX TY TZ RX RY RZ
   axis XYZ
   position 0 0 0  
   orientation 0 0 0 
:bonedata
  begin
     id 1 
     name lhipjoint
     direction 0.756833 -0.6125 0.228138 
     length 2.53827 
     axis 0 0 0  XYZ
  end
  begin
     id 2 
     name lfemur
     direction 0.34202 -0.939693 0  
     length 6.51821  
     axis 0 0 20  XYZ
    dof rx ry rz
    limits (-160.0 20.0)
           (-70.0 70.0)
           (-60.0 70.0)
  end
  begin
     id 3 
     name ltibia
     direction 0.34202 -0.939693 0   
     length 6.99902   
     axis 0 0 20   XYZ
    dof rx
    limits (-10.0 170.0)
  end
  begin
     id 4 
     name lfoot
     direction 0.0951515 -0.261427 0.960522   
     length 1.92102   
     axis -90 7.62852e-016 20   XYZ
    dof rx rz
    limits (-45.0 90.0)
           (-70.0 20.0)
  end
  begin
     id 5 
     name ltoes
     direction 1.53539e-011 -4.21781e-011 1   
     length 0.964376   
     axis -90 7.62852e-016 20   XYZ
    dof rx
    limits (-90.0 20.0)
  end
  begin
     id 6 
     name rhipjoint
     direction -0.752153 -0.617542 0.230017   
     length 2.51754  
     axis 0 0 0  XYZ 
  end
  begin
     id 7 
     name rfemur
     direction -0.34202 -0.939693 0   
     length 6.82377   
     axis 0 0 -20   XYZ
    dof rx ry rz
    limits (-160.0 20.0)
           (-70.0 70.0)
           (-70.0 60.0)
  end
  begin
     id 8 
     name rtibia
     direction -0.34202 -0.939693 0   
     length 6.98689   
     axis 0 0 -20   XYZ
    dof rx
    limits (-10.0 170.0)
 end
 begin
     id 9 
     name rfoot
     direction -0.0900426 -0.24739 0.964723   
     length 2.03215  
     axis -90 -7.62852e-016 -20   XYZ
    dof rx rz
    limits (-45.0 90.0)
           (-20.0 70.0)
  end
  begin
     id 10 
     name rtoes
     direction -1.53466e-011 -4.22206e-011 1   
     length 1.0197   
     axis -90 -7.62852e-016 -20   XYZ
    dof rx
    limits (-90.0 20.0)
  end
  begin
     id 11 
     name lowerback
     direction 0.0184183 0.995705 -0.0907278   
     length 2.019   
     axis 0 0 0   XYZ
    dof rx ry rz
    limits (-20.0 45.0)
           (-30.0 30.0)
           (-30.0 30.0)
  end
  begin
     id 12 
     name upperback
     direction 0.00281055 0.998777 0.0493607   
     length 1.99623   
     axis 0 0 0   XYZ
    dof rx ry rz
    limits (-20.0 45.0)
           (-30.0 30.0)
           (-30.0 30.0)
  end
  begin
     id 13 
     name thorax
     direction -0.00665507 0.995706 0.092331   
     length 2.02811   
     axis 0 0 0   XYZ
    dof rx ry rz
    limits (-20.0 45.0)
           (-30.0 30.0)
           (-30.0 30.0)
  end
  begin
     id 14 
     name lowerneck
     direction -0.0960965 0.994358 0.0449225   
     length 1.71265   
     axis 0 0 0   XYZ
    dof rx ry rz
    limits (-20.0 45.0)
           (-30.0 30.0)
           (-30.0 30.0)
  end
  begin
     id 15 
     name upperneck
     direction 0.13642 0.985357 -0.102278   
     length 1.73016   
     axis 0 0 0   XYZ
    dof rx ry rz
    limits (-20.0 45.0)
           (-30.0 30.0)
           (-30.0 30.0)
  end
  begin
     id 16
     name head
     direction 0.0556079 0.997632 -0.040479  
     length 1.74275  
     axis 0 0 0   XYZ
    dof rx ry rz
    limits (-20.0 45.0)
           (-30.0 30.0)
           (-30.0 30.0)
  end
  begin
     id 17 
     name lclavicle
     direction 0.90877 0.417247 -0.00652364  
     length 3.25514  
     axis 0 0 0   XYZ
    dof ry rz
    limits (-20.0 10.0)
           (0.0 20.0)
  end
  begin
     id 18 
     name lhumerus
     direction 1 -4.48949e-011 8.31417e-028   
     length 4.84834   
     axis 180 -30 -90   XYZ
    dof rx ry rz
    limits (-60.0 90.0)
           (-90.0 90.0)
           (-90.0 90.0)
  end
  begin
     id 19
     name lradius
     direction 1 -4.48984e-011 3.45616e-027   
     length 2.99713   
     axis 180 -30 -90   XYZ
    dof rx
    limits (-10.0 170.0)
  end
  begin
     id 20
     name lwrist
     direction 1 -4.4891e-011 4.0479e-027   
     length 1.49857   
     axis -1.61768e-015 90 90   XYZ
    dof ry
    limits (-180.0 0.0)
 end
  begin
     id 21 
     name lhand
     direction 1 -4.49025e-011 8.0958e-027   
     length 0.693987   
     axis -5.16581e-015 90 90   XYZ
    dof rx rz
    limits (-90.0 90.0)
           (-45.0 45.0)
  end
  begin
     id 22 
     name lfingers
     direction 1 -4.4888e-011 1.61916e-026   
     length 0.55951   
     axis -1.03316e-014 90 90   XYZ
    dof rx
    limits (0.0 90.0)
  end
  begin
     id 23
     name lthumb
     direction 0.707107 -6.3493e-011 0.707107   
     length 0.803348   
     axis -90 45 2.85299e-015   XYZ
    dof rx rz
    limits (-45.0 45.0)
           (-45.0 45.0)
  end
  begin
     id 24 
     name rclavicle
     direction -0.906655 0.41906 0.0486307   
     length 3.3311  
     axis 0 0 0   XYZ 
    dof ry rz
    limits (-10.0 20.0)
           (-20.0 0.0)
  end
  begin
     id 25 
     name rhumerus
     direction -1 -4.48959e-011 6.37764e-018  
     length 4.93457   
     axis 180 30 90   XYZ
    dof rx ry rz
    limits (-90.0 60.0)
           (-90.0 90.0)
           (-90.0 90.0)
  end
  begin
     id 26 
     name rradius
     direction -1 -4.48957e-011 2.20847e-027   
     length 3.3443   
     axis 180 30 90   XYZ
    dof rx
    limits (-10.0 170.0)
  end
  begin
     id 27 
     name rwrist
     direction -1 -4.49008e-011 4.0479e-027   
     length 1.67215   
     axis -1.61768e-015 -90 -90   XYZ
    dof ry
    limits (-180.0 0.0)
  end
  begin
     id 28
     name rhand
     direction -1 -4.49013e-011 8.0958e-027   
     length 0.677363   
     axis -5.16581e-015 -90 -90   XYZ
    dof rx rz
    limits (-90.0 90.0)
           (-45.0 45.0)
  end
  begin
     id 29
     name rfingers
     direction -1 -4.48832e-011 1.61916e-026   
     length 0.546107   
     axis -1.03316e-014 -90 -90   XYZ
    dof rx
    limits (0.0 90.0)
  end
  begin
     id 30
     name rthumb
     direction -0.707107 -6.34895e-011 0.707107   
     length 0.784104   
     axis -90 -45 -2.85299e-015   XYZ
    dof rx rz
    limits (-45.0 45.0)
           (-45.0 45.0)
  end
:hierarchy
  begin
    root lhipjoint rhipjoint lowerback
    lhipjoint lfemur
    lfemur ltibia
    ltibia lfoot
    lfoot ltoes
    rhipjoint rfemur
    rfemur rtibia
    rtibia rfoot
    rfoot rtoes
    lowerback upperback
    upperback thorax
    thorax lowerneck lclavicle rclavicle
    lowerneck upperneck
    upperneck head
    lclavicle lhumerus
    lhumerus lradius
    lradius lwrist
    lwrist lhand lthumb
    lhand lfingers
    rclavicle rhumerus
    rhumerus rradius
    rradius rwrist
    rwrist rhand rthumb
    rhand rfingers
  end

#!OML:ASF H:\Terrain\Patient Classification 1\junglegym\FridayTest\junglegym.ASF
:FULLY-SPECIFIED
:DEGREES
49
root 8.68898 16.1628 -33.3546 5.39234 -3.74953 -5.94946
lowerback 3.54519 0.813211 4.44617
upperback -3.5877 1.42238 1.14738
thorax -5.64255 0.547331 -1.41665
lowerneck -4.43953 -2.44945 -14.8429
upperneck 11.7536 -3.74169 14.5675
head 4.75055 -1.71505 6.88277
rclavicle 1.06163e-014 -1.41137e-014
rhumerus -29.8908 -0.583595 -83.2716
rradius 23.4722
rwrist 3.39231
rhand -18.6482 27.3089
rfingers 7.12502
rthumb 7.64475 -2.53288
lclavicle 1.06163e-014 -1.41137e-014
lhumerus -45.3036 0.514935 83.0465
lradius 28.2716
lwrist -23.0392
lhand -5.28552 20.2788
lfingers 7.12502
lthumb 20.5191 49.2145
rfemur -10.8672 5.49508 33.4322
rtibia 27.126
rfoot -16.6109 -7.0882
rtoes 11.9054
lfemur -41.4464 1.1492 -14.6195
ltibia 59.6771
lfoot -1.11573 3.79632
ltoes -14.541
50
root 8.68987 16.1337 -33.1734 5.61965 -3.99075 -6.08965
lowerback 3.41746 0.880953 4.60648
upperback -3.57269 1.51366 1.13211
thorax -5.54486 0.58797 -1.52671
lowerneck -4.51899 -2.39842 -14.9559
upperneck 11.7008 -3.67195 14.7793
head 4.74216 -1.6719 6.97692
rclavicle -9.30871e-015 -8.94531e-015
rhumerus -28.9667 -0.387376 -83.2289
rradius 23.9952
rwrist 4.19647
rhand -18.282 27.7353
rfingers 7.12502
rthumb 7.99816 -2.09336
lclavicle -9.30871e-015 -8.94531e-015
lhumerus -45.8476 0.400274 83.1163
lradius 28.5536
lwrist -23.0716
lhand -5.38313 21.0964
lfingers 7.12502
lthumb 20.4253 50.0422
rfemur -10.3276 5.49268 33.5913
rtibia 27.0464
rfoot -16.9257 -7.31838
rtoes 9.1056
lfemur -42.0591 0.998149 -14.4242
ltibia 56.9745
lfoot -0.825864 4.3396
ltoes -21.0027
51
root 8.69081 16.113 -32.9905 5.84896 -4.12091 -6.25383
lowerback 3.32411 0.924318 4.85639
upperback -3.54162 1.57718 1.08672
thorax -5.44864 0.611032 -1.71609
lowerneck -4.75473 -2.41665 -14.9329
upperneck 11.7159 -3.67347 14.8151
head 4.78814 -1.66107 6.98416
rclavicle -1.63361e-014 -9.34288e-015
rhumerus -28.0034 0.0662488 -83.3828
rradius 24.4503
rwrist 4.26761
rhand -19.0039 28.1123
rfingers 7.12502
rthumb 7.30142 -1.74168
lclavicle -1.63361e-014 -9.34288e-015
lhumerus -46.2058 0.253453 83.2074
lradius 28.5999
lwrist -22.9486
lhand -5.37253 21.9024
lfingers 7.12502
lthumb 20.4354 50.847
rfemur -9.66782 5.55264 33.7651
rtibia 26.7317
rfoot -17.2568 -7.51488
rtoes 7.29667
lfemur -42.4725 0.735474 -14.0783
ltibia 54.0758
lfoot -0.518059 4.76037
ltoes -25.179
52
root 8.6899 16.111 -32.8015 6.01992 -4.16543 -6.29104
lowerback 3.20544 0.936425 5.0037
upperback -3.49913 1.58854 1.00409
thorax -5.32992 0.612589 -1.88209
lowerneck -4.89816 -2.46826 -14.8598
upperneck 11.7242 -3.72243 14.7284
head 4.8211 -1.68112 6.93849
rclavicle 7.4882e-015 -1.82882e-014
rhumerus -27.138 0.490129 -83.5513
rradius 24.9141
rwrist 4.21677
rhand -19.7412 28.6685
rfingers 7.12502
rthumb 6.58965 -1.20896
lclavicle 7.4882e-015 -1.82882e-014
lhumerus -46.5388 0.415213 83.0498
lradius 28.3704
lwrist -23.0358
lhand -5.92755 20.8674
lfingers 7.12502
lthumb 19.902 49.8684
rfemur -8.8231 5.88148 33.8286
rtibia 26.2971
rfoot -17.7442 -7.8048
rtoes 7.61326
lfemur -42.6218 0.175646 -13.672
ltibia 50.9226
lfoot -0.435239 5.27982
ltoes -21.7148
53
root 8.68748 16.1137 -32.6087 6.07012 -4.21489 -6.16701
lowerback 3.14776 0.940355 4.92409
upperback -3.48962 1.57995 0.895032
thorax -5.28591 0.610389 -1.94897
lowerneck -4.5271 -2.45303 -14.7837
upperneck 11.3308 -3.72099 14.7138
head 4.63659 -1.69134 6.91411
rclavicle 1.86519e-014 9.54166e-015
rhumerus -26.4294 0.900797 -83.7443
rradius 25.5201
rwrist 3.99294
rhand -19.7556 28.684
rfingers 7.12502
rthumb 6.57571 -1.19391
lclavicle 1.86519e-014 9.54166e-015
lhumerus -47.1006 0.780893 82.7135
lradius 28.3712
lwrist -23.5672
lhand -5.78359 20.7072
lfingers 7.12502
lthumb 20.0404 49.6937
rfemur -7.7783 6.1539 33.747
rtibia 25.7433
rfoot -18.1238 -8.06327
rtoes 8.03099
lfemur -42.5726 -0.659903 -13.3161
ltibia 47.5429
lfoot -0.477027 5.96548
ltoes -15.8379
54
root 8.68597 16.0968 -32.4189 6.12492 -4.23507 -6.17663
lowerback 3.08245 0.946755 4.87309
upperback -3.45208 1.57864 0.863933
thorax -5.20921 0.613542 -1.95089
lowerneck -3.92679 -2.46367 -14.7003
upperneck 10.6525 -3.7542 14.652
head 4.3328 -1.72916 6.86744
rclavicle -1.21453e-014 -2.78299e-015
rhumerus -25.6134 1.3442 -83.8907
rradius 26.1452
rwrist 3.60625
rhand -19.5279 28.5023
rfingers 7.12502
rthumb 6.79559 -1.36861
lclavicle -1.21453e-014 -2.78299e-015
lhumerus -47.5025 1.18645 82.483
lradius 28.2117
lwrist -23.704
lhand -5.75074 21.7698
lfingers 7.12502
lthumb 20.072 50.753
rfemur -6.7569 6.07493 33.7932
rtibia 25.11
rfoot -18.4161 -8.25428
rtoes 6.92689
lfemur -42.419 -1.52016 -12.8277
ltibia 44.0134
lfoot -0.32275 6.73904
ltoes -14.1154
55
root 8.6859 16.0705 -32.2276 6.20249 -4.24428 -6.45288
lowerback 2.96388 0.920601 4.9868
upperback -3.35712 1.54633 1.03045
thorax -5.04622 0.602048 -1.83582
lowerneck -4.22741 -2.31255 -15.0021
upperneck 10.9448 -3.54348 14.9694
head 4.44814 -1.61154 7.04286
rclavicle 8.26043e-015 -9.54166e-015
rhumerus -24.7639 1.91168 -83.8362
rradius 26.7308
rwrist 3.49295
rhand -19.6844 28.8662
rfingers 7.12502
rthumb 6.64453 -1.00958
lclavicle 8.26043e-015 -9.54166e-015
lhumerus -47.6115 2.01125 82.2096
lradius 27.6278
lwrist -23.8911
lhand -6.48107 22.0679
lfingers 7.12502
lthumb 19.3698 51.1232
rfemur -5.79683 5.73983 34.093
rtibia 24.5291
rfoot -18.6906 -8.21798
rtoes 5.91528
lfemur -42.0919 -2.32086 -12.0421
ltibia 40.3357
lfoot -0.224746 7.65068
ltoes -13.9844
56
root 8.68658 16.0463 -32.0326 6.31863 -4.17316 -6.75024
lowerback 2.89659 0.868937 5.22852
upperback -3.35891 1.4905 1.13678
thorax -5.012 0.568299 -1.85518
lowerneck -4.29975 -2.24499 -15.0184
upperneck 11.0423 -3.44128 14.9116
head 4.47308 -1.56211 7.03386
rclavicle -1.98785e-015 5.1684e-015
rhumerus -24.1196 2.16539 -83.7945
rradius 27.2629
rwrist 3.72884
rhand -20.0584 29.2115
rfingers 7.12502
rthumb 6.28348 -0.675337
lclavicle -1.98785e-015 5.1684e-015
lhumerus -47.8982 2.81593 81.7132
lradius 27.1937
lwrist -24.655
lhand -6.43662 21.89
lfingers 7.12502
lthumb 19.4126 50.9409
rfemur -4.85567 5.61207 34.438
rtibia 23.9835
rfoot -18.9359 -8.26726
rtoes 6.29676
lfemur -41.7691 -3.32181 -11.081
ltibia 36.5464
lfoot -0.27235 8.808
ltoes -12.1725
57
root 8.68794 16.0313 -31.8376 6.47425 -4.07787 -6.7178
lowerback 2.76855 0.86693 5.2754
upperback -3.36564 1.47684 1.02552
thorax -4.94314 0.559259 -1.99337
lowerneck -4.53257 -2.27675 -14.8538
upperneck 11.1819 -3.47476 14.858
head 4.55699 -1.56578 6.98696
rclavicle -1.74247e-015 -3.57812e-015
rhumerus -23.4831 2.36724 -83.8982
rradius 27.907
rwrist 3.5171
rhand -20.2728 28.8201
rfingers 7.12502
rthumb 6.0764 -1.07276
lclavicle -1.74247e-015 -3.57812e-015
lhumerus -48.1926 2.99183 81.4392
lradius 26.8988
lwrist -24.5607
lhand -6.2676 21.7905
lfingers 7.12502
lthumb 19.5751 50.825
rfemur -3.91665 5.66055 34.4443
rtibia 23.3824
rfoot -19.3013 -8.49488
rtoes 7.27063
lfemur -41.4053 -4.52538 -10.3624
ltibia 32.6468
lfoot -0.571834 10.0654
ltoes -10.0588
58
root 8.68893 16.0222 -31.6412 6.54466 -4.11037 -6.75876
lowerback 2.52045 0.900712 5.26768
upperback -3.21383 1.4992 1.04312
thorax -4.64118 0.581239 -1.96587
lowerneck -4.86563 -2.27307 -14.9925
upperneck 11.3353 -3.43994 14.9745
head 4.65915 -1.53626 7.05459
rclavicle -3.5949e-014 -4.37326e-015
rhumerus -22.7137 2.82556 -83.8591
rradius 28.7065
rwrist 2.97511
rhand -20.4087 28.563
rfingers 7.12502
rthumb 5.94527 -1.33355
lclavicle -3.5949e-014 -4.37326e-015
lhumerus -48.1898 3.44029 81.274
lradius 26.3756
lwrist -24.3028
lhand -6.49657 22.0678
lfingers 7.12502
lthumb 19.3549 51.1246
rfemur -2.85827 5.42809 34.4626
rtibia 22.7657
rfoot -19.7437 -8.36939
rtoes 7.68146
lfemur -40.7361 -5.75723 -9.47397
ltibia 28.5718
lfoot -1.20765 11.483
ltoes -8.14778
59
root 8.6898 15.9988 -31.4446 6.61642 -4.13768 -7.08715
lowerback 2.345 0.940286 5.47914
upperback -3.14412 1.55155 1.16296
thorax -4.46371 0.60796 -1.95851
lowerneck -4.70492 -2.29007 -14.9575
upperneck 11.2628 -3.47162 14.893
head 4.61302 -1.56037 7.01803
rclavicle -2.35808e-014 2.94201e-014
rhumerus -22.2476 2.97936 -83.7329
rradius 29.564
rwrist 2.78706
rhand -20.4475 28.7486
rfingers 7.12502
rthumb 5.90781 -1.14899
lclavicle -2.35808e-014 2.94201e-014
lhumerus -48.2785 4.4408 80.6725
lradius 25.6707
lwrist -25.2262
lhand -6.76838 22.1869
lfingers 7.12502
lthumb 19.0936 51.2697
rfemur -1.75984 5.41374 34.7982
rtibia 22.111
rfoot -20.0047 -8.23814
rtoes 8.55654
lfemur -40.013 -7.12512 -8.12897
ltibia 24.3539
lfoot -1.61503 13.1925
ltoes -8.10018
